<svg version="1.1" xmlns="http://www.w3.org/2000/svg" viewBox="0 0 718.0298535967993 607.8313100780599" width="718.0298535967993" height="607.8313100780599" class="excalidraw-svg">
  <!-- svg-source:excalidraw -->
  
  <defs>
    <style class="style-fonts">
      @font-face {
        font-family: "Virgil";
        src: url("https://excalidraw.com/Virgil.woff2");
      }
      @font-face {
        font-family: "Cascadia";
        src: url("https://excalidraw.com/Cascadia.woff2");
      }
      @font-face {
        font-family: "Assistant";
        src: url("https://excalidraw.com/Assistant-Regular.woff2");
      }
    </style>
    
  </defs>
  <rect x="0" y="0" width="718.0298535967993" height="607.8313100780599" fill="#d0bfff"></rect><g stroke-linecap="round" transform="translate(30 307.16465358391923) rotate(0 48.666656494140625 135.3333282470703)"><path d="M24.33 0 C36.98 0, 49.62 0, 73 0 C89.22 0, 97.33 8.11, 97.33 24.33 C97.33 101.16, 97.33 177.98, 97.33 246.33 C97.33 262.56, 89.22 270.67, 73 270.67 C60.07 270.67, 47.13 270.67, 24.33 270.67 C8.11 270.67, 0 262.56, 0 246.33 C0 165.97, 0 85.61, 0 24.33 C0 8.11, 8.11 0, 24.33 0" stroke="none" stroke-width="0" fill="#e10000"></path><path d="M24.33 0 C37.7 0, 51.06 0, 73 0 M24.33 0 C35.57 0, 46.81 0, 73 0 M73 0 C89.22 0, 97.33 8.11, 97.33 24.33 M73 0 C89.22 0, 97.33 8.11, 97.33 24.33 M97.33 24.33 C97.33 99.71, 97.33 175.08, 97.33 246.33 M97.33 24.33 C97.33 94.99, 97.33 165.65, 97.33 246.33 M97.33 246.33 C97.33 262.56, 89.22 270.67, 73 270.67 M97.33 246.33 C97.33 262.56, 89.22 270.67, 73 270.67 M73 270.67 C56.47 270.67, 39.93 270.67, 24.33 270.67 M73 270.67 C54.27 270.67, 35.55 270.67, 24.33 270.67 M24.33 270.67 C8.11 270.67, 0 262.56, 0 246.33 M24.33 270.67 C8.11 270.67, 0 262.56, 0 246.33 M0 246.33 C0 197.74, 0 149.15, 0 24.33 M0 246.33 C0 193.49, 0 140.65, 0 24.33 M0 24.33 C0 8.11, 8.11 0, 24.33 0 M0 24.33 C0 8.11, 8.11 0, 24.33 0" stroke="transparent" stroke-width="2" fill="none"></path></g><g transform="translate(50.873687744140625 312.16465358391923) rotate(0 27.79296875 23)"><text x="27.79296875" y="0" font-family="Helvetica, Segoe UI Emoji" font-size="20px" fill="#ffffff" text-anchor="middle" style="white-space: pre;" direction="ltr" dominant-baseline="text-before-edge">Action</text><text x="27.79296875" y="23" font-family="Helvetica, Segoe UI Emoji" font-size="20px" fill="#ffffff" text-anchor="middle" style="white-space: pre;" direction="ltr" dominant-baseline="text-before-edge">A</text></g><g transform="translate(59.203765869140625 430.99798183098954) rotate(0 19.462890625 11.5)"><text x="19.462890625" y="0" font-family="Helvetica, Segoe UI Emoji" font-size="20px" fill="#ffffff" text-anchor="middle" style="white-space: pre;" direction="ltr" dominant-baseline="text-before-edge">0.75</text></g><g stroke-linecap="round" transform="translate(403.79769373901206 376.3710076343284) rotate(0 48.66665649414063 100.73015122186571)"><path d="M24.33 0 C42.11 0, 59.88 0, 73 0 C89.22 0, 97.33 8.11, 97.33 24.33 C97.33 61.73, 97.33 99.12, 97.33 177.13 C97.33 193.35, 89.22 201.46, 73 201.46 C56.38 201.46, 39.76 201.46, 24.33 201.46 C8.11 201.46, 0 193.35, 0 177.13 C0 143.41, 0 109.69, 0 24.33 C0 8.11, 8.11 0, 24.33 0" stroke="none" stroke-width="0" fill="#00be00"></path><path d="M24.33 0 C41.79 0, 59.25 0, 73 0 M24.33 0 C42.17 0, 60.01 0, 73 0 M73 0 C89.22 0, 97.33 8.11, 97.33 24.33 M73 0 C89.22 0, 97.33 8.11, 97.33 24.33 M97.33 24.33 C97.33 63.94, 97.33 103.55, 97.33 177.13 M97.33 24.33 C97.33 65.83, 97.33 107.32, 97.33 177.13 M97.33 177.13 C97.33 193.35, 89.22 201.46, 73 201.46 M97.33 177.13 C97.33 193.35, 89.22 201.46, 73 201.46 M73 201.46 C60.66 201.46, 48.31 201.46, 24.33 201.46 M73 201.46 C54.5 201.46, 36 201.46, 24.33 201.46 M24.33 201.46 C8.11 201.46, 0 193.35, 0 177.13 M24.33 201.46 C8.11 201.46, 0 193.35, 0 177.13 M0 177.13 C0 145.58, 0 114.03, 0 24.33 M0 177.13 C0 132.13, 0 87.13, 0 24.33 M0 24.33 C0 8.11, 8.11 0, 24.33 0 M0 24.33 C0 8.11, 8.11 0, 24.33 0" stroke="transparent" stroke-width="2" fill="none"></path></g><g transform="translate(424.6713814831527 381.3710076343284) rotate(0 27.79296875 23)"><text x="27.79296875" y="0" font-family="Helvetica, Segoe UI Emoji" font-size="20px" fill="#ffffff" text-anchor="middle" style="white-space: pre;" direction="ltr" dominant-baseline="text-before-edge">Action</text><text x="27.79296875" y="23" font-family="Helvetica, Segoe UI Emoji" font-size="20px" fill="#ffffff" text-anchor="middle" style="white-space: pre;" direction="ltr" dominant-baseline="text-before-edge">B</text></g><g transform="translate(433.0014596081527 470.99798183098954) rotate(0 19.462890625 11.5)"><text x="19.462890625" y="0" font-family="Helvetica, Segoe UI Emoji" font-size="20px" fill="#ffffff" text-anchor="middle" style="white-space: pre;" direction="ltr" dominant-baseline="text-before-edge">0.60</text></g><g stroke-linecap="round" transform="translate(216.89884686950603 216.42800645190232) rotate(0 48.666656494140625 180.70165181307877)"><path d="M24.33 0 C37.01 0, 49.68 0, 73 0 C89.22 0, 97.33 8.11, 97.33 24.33 C97.33 139.51, 97.33 254.68, 97.33 337.07 C97.33 353.29, 89.22 361.4, 73 361.4 C59.98 361.4, 46.95 361.4, 24.33 361.4 C8.11 361.4, 0 353.29, 0 337.07 C0 216.2, 0 95.33, 0 24.33 C0 8.11, 8.11 0, 24.33 0" stroke="none" stroke-width="0" fill="#00c8c8"></path><path d="M24.33 0 C41.93 0, 59.53 0, 73 0 M24.33 0 C42.39 0, 60.45 0, 73 0 M73 0 C89.22 0, 97.33 8.11, 97.33 24.33 M73 0 C89.22 0, 97.33 8.11, 97.33 24.33 M97.33 24.33 C97.33 132.38, 97.33 240.42, 97.33 337.07 M97.33 24.33 C97.33 107.42, 97.33 190.51, 97.33 337.07 M97.33 337.07 C97.33 353.29, 89.22 361.4, 73 361.4 M97.33 337.07 C97.33 353.29, 89.22 361.4, 73 361.4 M73 361.4 C60.91 361.4, 48.83 361.4, 24.33 361.4 M73 361.4 C58.6 361.4, 44.2 361.4, 24.33 361.4 M24.33 361.4 C8.11 361.4, 0 353.29, 0 337.07 M24.33 361.4 C8.11 361.4, 0 353.29, 0 337.07 M0 337.07 C0 239.08, 0 141.1, 0 24.33 M0 337.07 C0 250.77, 0 164.47, 0 24.33 M0 24.33 C0 8.11, 8.11 0, 24.33 0 M0 24.33 C0 8.11, 8.11 0, 24.33 0" stroke="transparent" stroke-width="2" fill="none"></path></g><g transform="translate(237.77253461364666 221.42800645190232) rotate(0 27.79296875 23)"><text x="27.79296875" y="0" font-family="Helvetica, Segoe UI Emoji" font-size="20px" fill="#ffffff" text-anchor="middle" style="white-space: pre;" direction="ltr" dominant-baseline="text-before-edge">Action</text><text x="27.79296875" y="23" font-family="Helvetica, Segoe UI Emoji" font-size="20px" fill="#ffffff" text-anchor="middle" style="white-space: pre;" direction="ltr" dominant-baseline="text-before-edge">C</text></g><g transform="translate(246.95864490528567 370.221578872279) rotate(0 19.462890625 11.5)"><text x="19.462890625" y="0" font-family="Helvetica, Segoe UI Emoji" font-size="20px" fill="#ffffff" text-anchor="middle" style="white-space: pre;" direction="ltr" dominant-baseline="text-before-edge">0.90</text></g><g stroke-linecap="round" transform="translate(590.696540608518 433.85355453905663) rotate(0 48.66665649414061 71.98887776950163)"><path d="M24.33 0 C41.86 0, 59.38 0, 73 0 C89.22 0, 97.33 8.11, 97.33 24.33 C97.33 50.12, 97.33 75.91, 97.33 119.64 C97.33 135.87, 89.22 143.98, 73 143.98 C54.17 143.98, 35.34 143.98, 24.33 143.98 C8.11 143.98, 0 135.87, 0 119.64 C0 99.45, 0 79.26, 0 24.33 C0 8.11, 8.11 0, 24.33 0" stroke="none" stroke-width="0" fill="#0000be"></path><path d="M24.33 0 C39.95 0, 55.57 0, 73 0 M24.33 0 C35.96 0, 47.59 0, 73 0 M73 0 C89.22 0, 97.33 8.11, 97.33 24.33 M73 0 C89.22 0, 97.33 8.11, 97.33 24.33 M97.33 24.33 C97.33 44.41, 97.33 64.49, 97.33 119.64 M97.33 24.33 C97.33 49.76, 97.33 75.19, 97.33 119.64 M97.33 119.64 C97.33 135.87, 89.22 143.98, 73 143.98 M97.33 119.64 C97.33 135.87, 89.22 143.98, 73 143.98 M73 143.98 C56.74 143.98, 40.47 143.98, 24.33 143.98 M73 143.98 C57.28 143.98, 41.57 143.98, 24.33 143.98 M24.33 143.98 C8.11 143.98, 0 135.87, 0 119.64 M24.33 143.98 C8.11 143.98, 0 135.87, 0 119.64 M0 119.64 C0 94.83, 0 70.01, 0 24.33 M0 119.64 C0 92.65, 0 65.65, 0 24.33 M0 24.33 C0 8.11, 8.11 0, 24.33 0 M0 24.33 C0 8.11, 8.11 0, 24.33 0" stroke="transparent" stroke-width="2" fill="none"></path></g><g transform="translate(611.5702283526587 438.85355453905663) rotate(0 27.792968749999986 23)"><text x="27.79296875" y="0" font-family="Helvetica, Segoe UI Emoji" font-size="20px" fill="#ffffff" text-anchor="middle" style="white-space: pre;" direction="ltr" dominant-baseline="text-before-edge">Action</text><text x="27.79296875" y="23" font-family="Helvetica, Segoe UI Emoji" font-size="20px" fill="#ffffff" text-anchor="middle" style="white-space: pre;" direction="ltr" dominant-baseline="text-before-edge">D</text></g><g transform="translate(620.7562602746037 510.60654386789935) rotate(0 19.462890624999986 11.5)"><text x="19.462890625" y="0" font-family="Helvetica, Segoe UI Emoji" font-size="20px" fill="#ffffff" text-anchor="middle" style="white-space: pre;" direction="ltr" dominant-baseline="text-before-edge">0.35</text></g><g mask="url(#mask-1BQ5jloW4cXO5z5GhM_OQ)" stroke-linecap="round"><g transform="translate(620.5311947638473 30) rotate(0 -173.76923987336488 80.46456481491347)"><path d="M0 0 C-57.92 26.82, -289.62 134.11, -347.54 160.93 M0 0 C-57.92 26.82, -289.62 134.11, -347.54 160.93" stroke="#f0f000" stroke-width="4" fill="none"></path></g><g transform="translate(620.5311947638473 30) rotate(0 -173.76923987336488 80.46456481491347)"><path d="M-329.81 143.3 C-333.38 146.84, -336.94 150.39, -347.54 160.93 M-329.81 143.3 C-336.81 150.25, -343.8 157.21, -347.54 160.93" stroke="#f0f000" stroke-width="4" fill="none"></path></g><g transform="translate(620.5311947638473 30) rotate(0 -173.76923987336488 80.46456481491347)"><path d="M-322.63 158.82 C-327.64 159.24, -332.64 159.67, -347.54 160.93 M-322.63 158.82 C-332.46 159.65, -342.28 160.48, -347.54 160.93" stroke="#f0f000" stroke-width="4" fill="none"></path></g></g><mask id="mask-1BQ5jloW4cXO5z5GhM_OQ"><rect x="0" y="0" fill="#fff" width="1068.069674510577" height="290.92912962982695"></rect><rect x="330.81078301548246" y="78.26456481491351" fill="#000" width="231.90234375" height="64.39999999999999" opacity="1"></rect></mask><g transform="translate(330.81078301548246 78.26456481491351) rotate(0 115.951171875 32.19999999999996)"><text x="115.951171875" y="0" font-family="Helvetica, Segoe UI Emoji" font-size="28px" fill="#228be6" text-anchor="middle" style="white-space: pre;" direction="ltr" dominant-baseline="text-before-edge">The best action for</text><text x="115.951171875" y="32.199999999999996" font-family="Helvetica, Segoe UI Emoji" font-size="28px" fill="#228be6" text-anchor="middle" style="white-space: pre;" direction="ltr" dominant-baseline="text-before-edge">this scenario</text></g></svg>